<svg width="40" height="31" viewBox="0 0 40 31" fill="none" xmlns="http://www.w3.org/2000/svg">
<path d="M0 15.15C0 14.7374 0.313684 14.4027 0.701758 14.4027H37.148L26.887 1.22391C26.64 0.90705 26.68 0.434758 26.9796 0.171706C27.2779 -0.0913454 27.7207 -0.0472558 27.9677 0.270349C27.9677 0.270349 39.2828 14.6829 39.3495 14.8346C39.4 14.9497 39.4217 15.0745 39.414 15.1963C39.428 15.3861 39.3698 15.5729 39.2498 15.7246L28.0217 29.8913C27.772 30.2067 27.3298 30.247 27.0337 29.9817C26.7369 29.7164 26.6982 29.2464 26.9474 28.9295L37.2091 15.8973H0.701758C0.314386 15.8973 0 15.5632 0 15.15Z" fill="#AE53DD"/>
</svg>
