<svg width="40" height="31" viewBox="0 0 40 31" fill="none" xmlns="http://www.w3.org/2000/svg">
<path d="M39.4161 15.15C39.4161 14.7374 39.1024 14.4027 38.7143 14.4027H2.26803L12.529 1.2239C12.7761 0.90705 12.7361 0.434758 12.4364 0.171706C12.1382 -0.0913454 11.6954 -0.0472558 11.4484 0.270349C11.4484 0.270349 0.133279 14.6829 0.0666122 14.8346C0.0161122 14.9497 -0.00563725 15.0745 0.00202942 15.1963C-0.0119706 15.3861 0.0462788 15.5729 0.166279 15.7246L11.3944 29.8913C11.6441 30.2067 12.0863 30.247 12.3824 29.9817C12.6792 29.7164 12.7179 29.2464 12.4687 28.9295L2.20694 15.8973H38.7143C39.1017 15.8973 39.4161 15.5632 39.4161 15.15Z" fill="#AE53DD"/>
</svg>
