<svg width="166" height="166" viewBox="0 0 166 166" fill="none" xmlns="http://www.w3.org/2000/svg">
<g filter="url(#filter0_d_2_756)">
<circle cx="83" cy="79" r="43" fill="#05021D"/>
</g>
<g clip-path="url(#clip0_2_756)">
<path d="M59.3503 78.2154C59.3503 77.7505 59.7268 77.3733 60.1925 77.3733H103.928L91.6148 62.5227C91.3183 62.1657 91.3663 61.6335 91.7259 61.337C92.0838 61.0406 92.6152 61.0903 92.9116 61.4482C92.9116 61.4482 106.49 77.6891 106.57 77.86C106.63 77.9897 106.656 78.1303 106.647 78.2676C106.664 78.4815 106.594 78.692 106.45 78.8629L92.9764 94.8267C92.6767 95.1821 92.1461 95.2276 91.7908 94.9286C91.4346 94.6297 91.3882 94.1 91.6872 93.7429L104.001 79.0575H60.1925C59.7276 79.0575 59.3503 78.6811 59.3503 78.2154Z" fill="#AE53DD"/>
</g>
<defs>
<filter id="filter0_d_2_756" x="0" y="0" width="166" height="166" filterUnits="userSpaceOnUse" color-interpolation-filters="sRGB">
<feFlood flood-opacity="0" result="BackgroundImageFix"/>
<feColorMatrix in="SourceAlpha" type="matrix" values="0 0 0 0 0 0 0 0 0 0 0 0 0 0 0 0 0 0 127 0" result="hardAlpha"/>
<feOffset dy="4"/>
<feGaussianBlur stdDeviation="20"/>
<feComposite in2="hardAlpha" operator="out"/>
<feColorMatrix type="matrix" values="0 0 0 0 0.0156863 0 0 0 0 0.00392157 0 0 0 0 0.109804 0 0 0 0.24 0"/>
<feBlend mode="normal" in2="BackgroundImageFix" result="effect1_dropShadow_2_756"/>
<feBlend mode="normal" in="SourceGraphic" in2="effect1_dropShadow_2_756" result="shape"/>
</filter>
<clipPath id="clip0_2_756">
<rect width="48" height="35" fill="white" transform="translate(59 61)"/>
</clipPath>
</defs>
</svg>
